PathFileType	4	(X/Y/Z)	./resultDataOpenSim/trcMotMarkerGrf/sub06/qtm-04-08.trc
DataRate	CameraRate	NumFrames	NumMarkers	Units	OrigDataRate	OrigDataStartFrame	OrigNumFrames
250.000000	250.000000	10	24	m	250.000000	67	531
Frame#	Time	L.Toe.Tip			R.Toe.Tip			L.Ankle.Lat			R.Ankle.Lat			L.Ankle.Med			R.Ankle.Med			L.Heel			R.Heel			L.Knee.Lat			R.Knee.Lat			L.Knee.Med			R.Knee.Med			L.Thigh.Upper			R.Thigh.Upper			L.ASIS			R.ASIS			V.Sacral			L.Acromium			R.Acromium			C7			L.Elbow			R.Elbow			L.Wrist.Lat			R.Wrist.Lat
		X1	Y1	Z1	X2	Y2	Z2	X3	Y3	Z3	X4	Y4	Z4	X5	Y5	Z5	X6	Y6	Z6	X7	Y7	Z7	X8	Y8	Z8	X9	Y9	Z9	X10	Y10	Z10	X11	Y11	Z11	X12	Y12	Z12	X13	Y13	Z13	X14	Y14	Z14	X15	Y15	Z15	X16	Y16	Z16	X17	Y17	Z17	X18	Y18	Z18	X19	Y19	Z19	X20	Y20	Z20	X21	Y21	Z21	X22	Y22	Z22	X23	Y23	Z23	X24	Y24	Z24

67	0.264	-1.3388117	0.079586004	-0.063196602	-0.76068725	0.035537325	0.095379448	-1.3325828	0.20972253	-0.089375195	-0.89393553	0.060529257	0.12045912	-1.3082802	0.21067434	-0.0098425677	-0.8770909	0.080830066	0.033766781	-1.3736721	0.26731496	-0.036906044	-0.95150527	0.038790557	0.059117568	-0.99137662	0.37476104	-0.12484045	-0.82016934	0.438014	0.16065191	-0.9840935	0.35886234	-0.0057495257	-0.8494959	0.42795319	0.034825917	-1.0108884	0.76844683	-0.11580603	-0.96766828	0.78090081	0.22564485	-0.92952611	0.81928836	-0.081069449	-0.88960362	0.83232956	0.15894007	-1.093793	0.8996094	0.064459164	-0.97133978	1.3113311	-0.12651716	-0.97786505	1.2896779	0.23692879	-1.0530825	1.3407523	0.054957666	-0.96968836	0.98724762	-0.19290303	-1.078327	0.98737203	0.29173563	-0.76849297	0.84665881	-0.15300064	-0.9588771	0.78503051	0.3444551
68	0.268	-1.3229203	0.080211885	-0.063234334	-0.76073924	0.035535894	0.095452174	-1.3193509	0.21053176	-0.089116903	-0.89402529	0.060510829	0.12053048	-1.2950075	0.21195404	-0.0096551838	-0.87705989	0.080905954	0.033896395	-1.3617423	0.26738726	-0.036912517	-0.95151412	0.03889012	0.059129154	-0.97927306	0.37657485	-0.12526464	-0.81858088	0.43759615	0.16092792	-0.97182507	0.36084722	-0.0059771275	-0.84776317	0.42807419	0.035280589	-1.0050837	0.7700637	-0.11524182	-0.962558	0.78204693	0.22623904	-0.92390116	0.82092689	-0.080672262	-0.88434224	0.83364551	0.15983993	-1.088945	0.90163881	0.065787325	-0.96649645	1.3128834	-0.12633864	-0.97198142	1.2914715	0.23716551	-1.0476037	1.3423413	0.055329527	-0.96564208	0.98888384	-0.19249792	-1.0710838	0.98871219	0.2926283	-0.76589443	0.84623076	-0.15383972	-0.94936574	0.78743641	0.34485176
69	0.272	-1.3068141	0.080666194	-0.063241306	-0.76078775	0.035535576	0.095516109	-1.3058529	0.21103687	-0.088957874	-0.89410738	0.060507569	0.12058998	-1.2816897	0.21292428	-0.0094775678	-0.87703508	0.080981696	0.034027735	-1.3495578	0.26715117	-0.036938729	-0.95152278	0.038998755	0.059134688	-0.96721839	0.37857508	-0.12560703	-0.81700783	0.43720728	0.16115487	-0.95990099	0.36291248	-0.0058581412	-0.84614919	0.42823767	0.035695661	-0.9992217	0.77175393	-0.11468355	-0.9571908	0.7832978	0.22690331	-0.91828887	0.82256024	-0.080296364	-0.87888534	0.83505873	0.16077139	-1.0839808	0.90358782	0.066880309	-0.96167892	1.3144819	-0.12616695	-0.96609856	1.2933046	0.23738514	-1.0421393	1.3439704	0.055707774	-0.96187771	0.99059031	-0.19222481	-1.0639371	0.9901099	0.29332252	-0.76331095	0.84585336	-0.15468905	-0.93985714	0.78991979	0.34520535
70	0.276	-1.2905173	0.080946471	-0.063238658	-0.76083175	0.035536171	0.095571278	-1.292086	0.21125084	-0.088869169	-0.89417729	0.060513441	0.12063981	-1.2682371	0.21359194	-0.009331077	-0.8770196	0.081061613	0.034145371	-1.33707	0.2665758	-0.03692965	-0.95153223	0.039118388	0.059135153	-0.95522141	0.38075565	-0.12586968	-0.81545037	0.43685659	0.16134899	-0.94828553	0.36513283	-0.0054694634	-0.84463011	0.42843063	0.036070425	-0.99331018	0.7735259	-0.11412888	-0.95218734	0.78451836	0.22748543	-0.91266424	0.82419309	-0.079891524	-0.87312708	0.83657348	0.1617411	-1.0789027	0.90543299	0.067739362	-0.95686538	1.316123	-0.12599979	-0.96019743	1.2951653	0.23758349	-1.0366826	1.3456323	0.056097985	-0.9582038	0.99233496	-0.19180088	-1.0568453	0.99157672	0.29386872	-0.76080144	0.84552525	-0.15557637	-0.93034785	0.7924766	0.34552103
71	0.28	-1.2740378	0.081057548	-0.063252787	-0.76087186	0.035537829	0.095616366	-1.2782269	0.21121117	-0.088736541	-0.89423376	0.060522952	0.12068354	-1.2545628	0.21398962	-0.0092188559	-0.87701543	0.081150253	0.034240116	-1.3243385	0.26570391	-0.036864333	-0.95154347	0.03924511	0.059131945	-0.94328994	0.38309743	-0.12605178	-0.81390654	0.43654973	0.16152268	-0.93666877	0.36751591	-0.0050359028	-0.84322297	0.42864261	0.036422343	-0.98735555	0.77538208	-0.11358387	-0.94758046	0.78569597	0.22797704	-0.9069942	0.82582797	-0.079388191	-0.86721762	0.83815249	0.16272501	-1.0738966	0.9072757	0.068510461	-0.95204059	1.3178015	-0.1258317	-0.95428352	1.2970493	0.2377622	-1.0312246	1.3473272	0.056496544	-0.95448013	0.9941048	-0.19111903	-1.0497576	0.99310392	0.29441701	-0.75839134	0.84524326	-0.15651525	-0.92081853	0.79510149	0.34579636
72	0.284	-1.2573553	0.081019772	-0.063325967	-0.76090979	0.035540795	0.095651232	-1.2643582	0.2109448	-0.088528086	-0.89428075	0.060533719	0.12072302	-1.2407743	0.21414533	-0.0091030654	-0.87701981	0.081250351	0.034314809	-1.3114904	0.26459513	-0.036744017	-0.95155586	0.03937504	0.05912184	-0.93144091	0.38557813	-0.12615203	-0.81236868	0.43628316	0.16167843	-0.9247468	0.36999754	-0.0047373841	-0.84193696	0.42887195	0.036757538	-0.98136591	0.77731339	-0.11307381	-0.94316899	0.78688939	0.22840906	-0.90126957	0.82747016	-0.07877321	-0.86165713	0.83971988	0.16365097	-1.0688457	0.90912356	0.069187277	-0.94719569	1.3195103	-0.12565751	-0.94837194	1.2989595	0.23792925	-1.0257609	1.3490525	0.056897965	-0.95070456	0.99590575	-0.1902788	-1.0426299	0.99467258	0.29515403	-0.7560741	0.84500387	-0.15750476	-0.91124851	0.79779116	0.34602427
73	0.288	-1.2404229	0.080868735	-0.063519719	-0.76094752	0.035545689	0.095677488	-1.2504377	0.21046842	-0.088292625	-0.89432511	0.060546435	0.12075777	-1.2270791	0.21408534	-0.008924917	-0.87702813	0.081362566	0.034378686	-1.2985955	0.26323005	-0.03654787	-0.95157008	0.039505094	0.059104262	-0.91969141	0.38817886	-0.12617027	-0.81082331	0.4360436	0.16180781	-0.91248943	0.37255425	-0.0045758004	-0.84075571	0.42912503	0.037066777	-0.97535645	0.77930072	-0.11264824	-0.9388641	0.7881318	0.2287978	-0.89553166	0.8291336	-0.078148835	-0.85689967	0.84122576	0.16444773	-1.0635648	0.91090335	0.069714732	-0.94232749	1.321246	-0.12547414	-0.94246384	1.3008938	0.23808727	-1.0202961	1.3507957	0.057301724	-0.9469355	0.99774936	-0.18941811	-1.0354588	0.99627051	0.29612963	-0.75382397	0.84481283	-0.15853	-0.90165011	0.80054419	0.34619933
74	0.292	-1.2232113	0.080638584	-0.063877375	-0.76098775	0.035553083	0.095698083	-1.2364345	0.20979758	-0.088065638	-0.89437162	0.060563709	0.12078948	-1.2135422	0.21383933	-0.0086595527	-0.87703791	0.081487125	0.034439511	-1.2856419	0.26155051	-0.036267603	-0.95159216	0.039625513	0.059090415	-0.90800468	0.39088749	-0.12611433	-0.80926458	0.43582819	0.16191276	-0.90006708	0.37521294	-0.0044454778	-0.83966536	0.42940099	0.037343979	-0.96934688	0.78132437	-0.1123769	-0.93465722	0.78941171	0.22918826	-0.88984208	0.83083617	-0.077649097	-0.85274608	0.84271003	0.16513278	-1.0582342	0.91259046	0.07020781	-0.9374387	1.3230076	-0.12528035	-0.93655472	1.3028452	0.23822976	-1.0148371	1.3525452	0.057709713	-0.94321537	0.99964034	-0.18859603	-1.028267	0.99789692	0.29725505	-0.75162207	0.84468106	-0.15957577	-0.8920894	0.80335232	0.34632251
75	0.296	-1.2057787	0.080333578	-0.064340656	-0.76103345	0.035562491	0.095715806	-1.2223191	0.20895021	-0.08787918	-0.89441869	0.060589005	0.12082433	-1.1999963	0.21341894	-0.0083534899	-0.8770498	0.081626826	0.034503883	-1.2726102	0.25954758	-0.035954467	-0.95163193	0.039717971	0.059100325	-0.89628648	0.39369607	-0.12599317	-0.80772954	0.43570046	0.16206584	-0.88763654	0.3779981	-0.004268098	-0.83865649	0.42968492	0.037594136	-0.96334705	0.78337751	-0.11229327	-0.93039474	0.79072008	0.22964817	-0.88421494	0.83259028	-0.077294196	-0.84852842	0.84425749	0.16579622	-1.0531668	0.91421443	0.070821142	-0.93253477	1.3247879	-0.12507821	-0.93064928	1.3048095	0.23835264	-1.009385	1.3543019	0.058121233	-0.93955527	1.0015731	-0.18779559	-1.0210693	0.99955612	0.29843706	-0.74947591	0.84461296	-0.16064567	-0.88262466	0.80620238	0.34639969
76	0.3	-1.1882538	0.079924501	-0.064755083	-0.76108605	0.035572375	0.095731747	-1.2080412	0.20794551	-0.087770845	-0.89445835	0.060626734	0.12086803	-1.1861993	0.21280943	-0.0080843622	-0.87706854	0.081786042	0.034580223	-1.2595293	0.25726564	-0.035646817	-0.95169425	0.039773117	0.059146859	-0.88450094	0.39659475	-0.12580154	-0.8063393	0.43585908	0.16248646	-0.87527058	0.38092364	-0.0040200908	-0.83775658	0.4299546	0.0378212	-0.9573401	0.78546773	-0.11229404	-0.92572993	0.7920925	0.23019794	-0.87860801	0.83440114	-0.076985852	-0.84389146	0.8458929	0.16649118	-1.0483318	0.91581131	0.071496546	-0.92762188	1.3265782	-0.12487294	-0.92474759	1.3067813	0.23846032	-1.0039388	1.356071	0.058534943	-0.93595018	1.0035393	-0.18698921	-1.0138779	1.0012469	0.29962853	-0.74740327	0.84460408	-0.16175215	-0.87323043	0.80909295	0.34643571
